<svg width="2276" height="1538" viewBox="0 0 2276 1538" fill="none" xmlns="http://www.w3.org/2000/svg">
<g opacity="0.3" filter="url(#filter0_f_4_3934)">
<ellipse cx="1618.56" cy="468.393" rx="106.443" ry="100.686" fill="#FF0500"/>
<ellipse cx="1782.88" cy="468.393" rx="109.003" ry="100.686" fill="#00FF19"/>
<ellipse cx="1705.22" cy="390.686" rx="112.764" ry="100.686" fill="#001AFF"/>
</g>
<g opacity="0.2" filter="url(#filter1_f_4_3934)">
<ellipse cx="522.425" cy="976.336" rx="140.425" ry="132.829" fill="#FF0500"/>
<ellipse cx="739.198" cy="976.336" rx="143.802" ry="132.829" fill="#00FF19"/>
<ellipse cx="636.747" cy="873.821" rx="148.764" ry="132.829" fill="#001AFF"/>
</g>
<g opacity="0.2" filter="url(#filter2_f_4_3934)">
<ellipse cx="1533.43" cy="1022.58" rx="140.425" ry="132.829" fill="#FF0500"/>
<ellipse cx="1750.2" cy="1022.58" rx="143.802" ry="132.829" fill="#00FF19"/>
<ellipse cx="1647.75" cy="920.064" rx="148.764" ry="132.829" fill="#001AFF"/>
</g>
<g opacity="0.3" filter="url(#filter3_f_4_3934)">
<ellipse cx="627.74" cy="382.824" rx="92.0805" ry="87.0997" transform="rotate(180 627.74 382.824)" fill="#FF0500"/>
<ellipse cx="485.596" cy="382.823" rx="94.2945" ry="87.0997" transform="rotate(180 485.596 382.823)" fill="#00FF19"/>
<ellipse cx="552.777" cy="450.045" rx="97.5485" ry="87.0997" transform="rotate(180 552.777 450.045)" fill="#001AFF"/>
</g>
<defs>
<filter id="filter0_f_4_3934" x="1222.76" y="0.644165" width="958.474" height="857.791" filterUnits="userSpaceOnUse" color-interpolation-filters="sRGB">
<feFlood flood-opacity="0" result="BackgroundImageFix"/>
<feBlend mode="normal" in="SourceGraphic" in2="BackgroundImageFix" result="shape"/>
<feGaussianBlur stdDeviation="144.678" result="effect1_foregroundBlur_4_3934"/>
</filter>
<filter id="filter1_f_4_3934" x="0.268005" y="359.26" width="1264.46" height="1131.64" filterUnits="userSpaceOnUse" color-interpolation-filters="sRGB">
<feFlood flood-opacity="0" result="BackgroundImageFix"/>
<feBlend mode="normal" in="SourceGraphic" in2="BackgroundImageFix" result="shape"/>
<feGaussianBlur stdDeviation="190.866" result="effect1_foregroundBlur_4_3934"/>
</filter>
<filter id="filter2_f_4_3934" x="1011.27" y="405.503" width="1264.46" height="1131.64" filterUnits="userSpaceOnUse" color-interpolation-filters="sRGB">
<feFlood flood-opacity="0" result="BackgroundImageFix"/>
<feBlend mode="normal" in="SourceGraphic" in2="BackgroundImageFix" result="shape"/>
<feGaussianBlur stdDeviation="190.866" result="effect1_foregroundBlur_4_3934"/>
</filter>
<filter id="filter3_f_4_3934" x="140.99" y="45.4119" width="829.142" height="742.045" filterUnits="userSpaceOnUse" color-interpolation-filters="sRGB">
<feFlood flood-opacity="0" result="BackgroundImageFix"/>
<feBlend mode="normal" in="SourceGraphic" in2="BackgroundImageFix" result="shape"/>
<feGaussianBlur stdDeviation="125.156" result="effect1_foregroundBlur_4_3934"/>
</filter>
</defs>
</svg>
