<svg width="22" height="25" viewBox="0 0 22 25" fill="none" xmlns="http://www.w3.org/2000/svg">
<g id="logos:google-play-icon" clip-path="url(#clip0_4_4165)">
<path id="Vector" d="M10.2837 11.9427L0.234863 22.4709C0.347711 22.8708 0.550502 23.2396 0.827735 23.5492C1.10497 23.8587 1.4493 24.1007 1.83442 24.2568C2.21953 24.4129 2.63523 24.4788 3.04973 24.4496C3.46424 24.4204 3.86657 24.2968 4.22599 24.0882L15.5329 17.6486L10.2837 11.9427Z" fill="#EA4335"/>
<path id="Vector_2" d="M20.4449 10.1531L15.5555 7.35248L10.0518 12.1822L15.5779 17.6335L20.4301 14.8629C20.86 14.6378 21.22 14.2993 21.4712 13.8842C21.7224 13.4691 21.8552 12.9932 21.8552 12.5079C21.8552 12.0227 21.7224 11.5468 21.4712 11.1317C21.22 10.7165 20.86 10.3781 20.4301 10.153H20.4451L20.4449 10.1531Z" fill="#FBBC04"/>
<path id="Vector_3" d="M0.234942 2.49286C0.174202 2.71741 0.143966 2.94912 0.145048 3.18174V21.7819C0.145677 22.0144 0.175884 22.246 0.234942 22.4709L10.6283 12.2123L0.234942 2.49286Z" fill="#4285F4"/>
<path id="Vector_4" d="M10.3586 12.4819L15.5553 7.35258L4.26347 0.882923C3.83862 0.634109 3.35542 0.502342 2.86308 0.501043C1.64128 0.498668 0.567132 1.30958 0.234863 2.48541L10.3586 12.4819Z" fill="#34A853"/>
</g>
<defs>
<clipPath id="clip0_4_4165">
<rect width="21.7102" height="24" fill="white" transform="translate(0.14502 0.501038)"/>
</clipPath>
</defs>
</svg>
