<svg width="1512" height="944" viewBox="0 0 1512 944" fill="none" xmlns="http://www.w3.org/2000/svg">
<path fill-rule="evenodd" clip-rule="evenodd" d="M0 5.3745V932.131C251.375 877.102 539.657 879.571 907.458 912.06C1137.9 938.77 1335.76 949.444 1512 940.046V19.2886C1265.56 77.2824 984.201 72.7288 620.444 22.5733C384.286 1.71987 181.129 -5.92903 0 5.3745Z" fill="#F0F7EB"/>
<g opacity="0.8">
<mask id="mask0_2111_2273" style="mask-type:alpha" maskUnits="userSpaceOnUse" x="0" y="6" width="1512" height="938">
<path fill-rule="evenodd" clip-rule="evenodd" d="M389.405 6.04688H0V932.131C251.375 877.102 539.657 879.57 907.458 912.06C1137.9 938.77 1335.76 949.444 1512 940.045V19.2884C1265.56 77.2822 984.201 72.7286 620.444 22.573C539.721 15.445 462.854 9.85977 389.405 6.04688Z" fill="#F0F7EB"/>
</mask>
<g mask="url(#mask0_2111_2273)">
<g opacity="0.05">
<path fill-rule="evenodd" clip-rule="evenodd" d="M503.337 349.683C503.229 325.265 460.155 297.807 441.755 283.65C405.374 255.651 367.536 229.795 330.049 203.526C292.561 177.256 254.973 151.058 219.226 122.218C196.016 103.497 168.744 82.4123 153.002 55.6803C119.469 -1.28737 225.197 7.17241 252.584 5.92625C322.256 2.74318 402.169 4.19582 467.475 -25.4701C506.46 -43.1799 522.006 -72.8814 513.633 -116.17C510.934 -130.248 502.945 -146.448 509.713 -160.163C516.939 -174.811 533.564 -183.263 547.362 -188.932C597.689 -209.582 655.553 -211.975 708.802 -214.567C766.22 -217.415 824.179 -216.582 881.193 -216.803C905.368 -216.896 930.616 -226.06 953.637 -233.509C983.817 -243.272 1013.64 -254.238 1043.57 -264.841C1109.42 -288.112 1177.27 -312.623 1246.93 -318.533C1290.56 -322.236 1338.24 -317.23 1372.13 -285.022C1389.15 -268.85 1398.05 -244.81 1407.89 -223.454C1419.8 -197.655 1431.24 -171.606 1443.91 -146.213C1484.76 -64.4288 1543.06 15.4896 1637.71 19.5059C1652.02 20.1111 1666.09 18.1387 1680.34 17.7684C1689.41 17.5405 1697.49 19.8548 1700.86 29.874C1709.34 55.0039 1682.68 94.6747 1671.75 114.613C1647.82 158.258 1620.83 199.944 1595.55 242.712C1578.82 270.997 1549.87 309.649 1549.57 344.015C1549.3 374.635 1587.89 396.767 1608.9 411.849C1628.59 425.97 1664.26 445.731 1666.42 474.456C1667.47 488.385 1658.77 499.928 1649.68 508.886C1633.75 524.552 1615.39 535.604 1601.06 553.478C1577.56 582.802 1557.93 623.149 1561.12 662.663C1563.33 690.043 1578.14 707.974 1596.97 725.114C1604.88 732.32 1611.31 737.419 1611.72 749.119C1612.4 767.697 1605.5 787.358 1599.82 804.584C1579.5 866.23 1550.63 925.839 1518.53 981.497C1502.48 1009.31 1485.15 1037.04 1463.87 1060.77C1449.94 1076.35 1431.15 1094.89 1409.9 1094.87C1385.29 1094.87 1359.25 1085.5 1335.33 1078.49C1290.66 1065.4 1246.53 1050.26 1202.57 1034.73C1100.91 998.794 1000.21 959.951 900.463 918.199C830.204 888.739 758.454 859.237 692.4 820.072C679.517 812.381 667.358 803.413 656.086 793.29C644.042 782.658 629.097 777.902 613.943 774.355C519.887 752.344 416.844 769.243 322.397 779.838C298.424 782.523 274.452 785.222 250.411 787.102C229.745 788.718 205.003 793.354 184.917 786.39C145.338 772.682 179.937 722.159 194.565 701.572C246.066 629.088 312.513 567.762 374.101 505.155C403.384 475.339 432.889 445.602 460.58 414.099C474.998 397.721 503.431 371.089 503.337 349.683Z" stroke="#11453B"/>
<path fill-rule="evenodd" clip-rule="evenodd" d="M521.084 345.567C505.299 319.729 477.603 300.632 454.613 282.66C421.529 256.786 387.405 232.351 353.795 207.211C322.014 183.437 290.166 159.393 260.735 132.396C242.788 115.932 220.271 96.2442 211.771 71.8942C193.331 19.1157 292.529 27.1232 317.018 25.7423C377.899 22.3258 446.923 21.5428 503.246 -6.24511C538.416 -23.5983 552.865 -52.3756 545.364 -92.3278C542.771 -106.151 538.099 -117.952 544.014 -131.704C550.853 -147.619 566.585 -157.541 581.007 -164.545C626.183 -186.489 679.583 -191.151 728.554 -195.031C779.145 -199.038 831.857 -201.864 880.821 -198.931C900.401 -197.764 922.939 -204.391 942.316 -209.473C972.132 -217.302 1001.64 -226.335 1031.31 -234.734C1091.61 -251.817 1153.47 -268.273 1216.19 -270.145C1261.47 -271.497 1308.69 -264.166 1346.37 -235.83C1384.55 -207.095 1401.49 -162.552 1422.66 -120.208C1459.23 -47.0017 1508.62 42.0065 1593.22 57.4735C1606.05 59.8224 1618.38 58.5484 1631.19 59.1249C1637.78 59.4167 1645.28 60.342 1648.62 67.1964C1657.3 84.991 1633.53 117.526 1625.53 131.157C1603.42 168.825 1578.57 204.648 1555.4 241.59C1537 270.922 1513.68 303.515 1506.57 338.285C1497.93 380.48 1554.35 410.502 1574.2 440.212C1608.6 491.731 1543.42 521.085 1511.29 545.648C1474.39 573.849 1443.94 625.297 1477.01 668.929C1489.67 685.613 1505.24 695.556 1510.89 717.33C1519.72 751.381 1513.04 790.294 1505.87 823.955C1495.07 874.555 1477.97 924.607 1454.73 970.339C1438.08 1003.08 1410.46 1054.42 1370.01 1050.57C1342.78 1048 1315.1 1038.61 1288.58 1030.31C1248.88 1017.89 1209.68 1003.74 1170.69 989.031C1080.68 955.178 991.665 917.853 904.398 876.797C844.854 848.774 678.76 734.256 666.262 730.17C628.999 717.999 586.631 720.141 548.213 722.028C497.109 724.533 446.261 731.024 395.453 737.039C371.269 739.886 346.962 743.367 322.649 744.769C305.344 745.765 282.617 746.62 267.459 736.007C237.873 715.301 270.835 667.925 284.467 647.881C326.227 586.433 379.053 533.221 428.585 478.812C452.891 452.099 477.569 425.429 499.634 396.573C508.533 384.921 530.841 361.525 521.084 345.567Z" stroke="#11453B"/>
<path fill-rule="evenodd" clip-rule="evenodd" d="M542.923 332.316C499.813 280.612 440.311 242.158 388.958 198.976C363.183 177.296 337.246 155.026 315.016 129.202C303.452 115.774 289.012 98.7935 286.784 80.0755C280.83 30.0019 370.237 36.7729 396.998 34.8719C448.736 31.1838 507.184 28.3858 554.123 2.83285C582.8 -12.788 596.923 -38.4264 591.563 -72.1244C589.187 -87.076 585.487 -99.7777 591.563 -114.459C597.72 -129.332 610.546 -139.827 623.535 -147.694C660.86 -170.321 707.245 -177.554 749.269 -182.944C798.567 -189.222 848.236 -191.673 897.875 -190.278C941.35 -189.074 984.616 -202.609 1027.07 -211.53C1083.3 -223.342 1140.55 -233.658 1198.1 -232.099C1243.54 -230.86 1289.35 -221.128 1328.2 -195.261C1367.68 -168.918 1391.41 -129.489 1412.81 -86.9408C1445.16 -22.6205 1485.48 63.5719 1556.45 87.9999C1566.77 91.5598 1576.39 91.9514 1587.04 92.5708C1592.21 92.8698 1598.89 92.9624 1601.45 98.6511C1607.62 112.35 1584.81 138.906 1578.44 148.162C1558.12 177.709 1536.1 205.925 1515.27 235.081C1495.83 262.3 1474.65 290.665 1462.57 322.562C1443.35 373.362 1504.8 403.065 1503.08 451.473C1502.01 481.526 1474.73 503.077 1453.12 517.986C1426.52 536.32 1388.23 548.373 1374.91 581.829C1365 606.749 1380.56 621.252 1392.54 640.162C1412.85 672.201 1414.23 715.632 1412.12 752.719C1409.27 802.835 1398.14 853.692 1379.19 899.757C1370.6 920.639 1360.08 942.362 1344.6 958.581C1330.09 973.781 1316.36 977.676 1296.97 974.565C1237.62 965.024 1177.69 938.432 1120.77 914.68C1049.26 884.834 978.736 851.883 910.316 814.811C863.661 789.528 815.954 762.779 775.003 727.849C764.33 718.743 753.4 708.847 745.596 696.835C739.696 687.808 737.192 680.353 727.248 675.198C697.774 659.926 656.776 663.921 625.196 665.508C574.699 668.036 524.446 674.764 474.261 680.823C444.976 684.383 389.808 695.582 366.423 668.719C346.238 645.523 370.595 605.973 383.037 585.539C414.509 533.863 454.994 488.51 492.556 441.811C509.77 420.409 527.66 398.843 541.877 375.049C545.509 368.983 551.328 360.945 552.327 353.576C553.448 345.131 548.216 338.688 542.923 332.316Z" stroke="#11453B"/>
<path fill-rule="evenodd" clip-rule="evenodd" d="M546.63 344.352C506.794 298.636 458.802 261.079 416.036 218.299C396.86 199.118 377.496 178.996 362.885 155.596C355.026 143.013 346.681 127.174 348.848 111.534C355.067 66.6442 428.601 70.6986 458.309 68.0693C502.452 64.2074 553.165 60.317 592.198 36.1124C617.767 20.2586 627.354 -3.15507 622.581 -33.352C617.456 -65.7436 628.914 -89.2569 654.99 -107.327C687.682 -129.964 728.949 -139.191 766.908 -145.746C812.641 -153.606 858.953 -157.09 905.28 -156.156C950.335 -155.244 993.985 -163.21 1038.74 -168.39C1098.09 -175.252 1159.33 -178.637 1218 -164.571C1269.09 -152.323 1315.23 -125.332 1349.82 -83.5924C1385.95 -40.0284 1403.83 14.8577 1433.17 63.0532C1451.47 93.1147 1476.98 132.881 1511.18 144.566C1522.58 148.464 1543.36 143.205 1534.25 162.38C1529.05 173.345 1519.3 182.964 1511.61 191.928C1499.17 206.414 1486.32 220.501 1473.68 234.787C1446.72 265.24 1417.86 296.342 1397.66 332.403C1372.2 377.805 1410.04 412.748 1405.43 458.784C1402.95 483.559 1386.62 503.331 1369.35 518.865C1358.18 528.925 1345.95 537.64 1333.47 545.77C1320.43 554.263 1305 560.733 1293.63 571.713C1277.43 587.339 1284.46 605.836 1287.5 626.036C1292.85 661.536 1294.02 697.596 1291 733.4C1287.3 777.284 1278.62 822.423 1260.35 862.303C1253.24 877.829 1244.23 894.289 1230.85 904.699C1217.48 915.109 1203.64 914.396 1188.32 911.261C1142.86 901.998 1097.49 880.444 1054.37 860.016C1000.39 834.443 947.479 805.864 896.948 773.351C862.068 750.907 827.073 726.659 797.892 696.227C789.405 687.37 781.33 677.887 774.801 667.299C770.318 660.038 767.914 650.668 761.419 645.21C741.096 628.174 700.294 633.261 676.46 634.251C628.894 636.225 582.077 645.609 534.571 647.889C508.644 649.136 468.038 652.271 448.998 628.979C431.092 607.083 447.31 572.596 458.012 551.498C479.044 510.015 507.3 473.056 532.626 434.494C543.038 418.626 554.448 402.024 561.193 383.905C567.189 367.759 556.838 356.073 546.63 344.352Z" stroke="#11453B"/>
<path fill-rule="evenodd" clip-rule="evenodd" d="M556.427 345.1C524.719 304.871 486.494 269.161 454.557 228.278C435.863 204.335 403.669 164.085 418.126 130.332C433.987 93.2407 489.274 92.2305 521.232 89.2421C559.268 85.6846 603.935 80.825 636.487 57.6654C646.782 50.344 655.552 40.6533 659.269 27.8888C663.25 14.2279 658.898 2.27459 658.332 -11.4006C657.144 -40.0885 673.376 -63.1201 694.857 -78.9369C725.215 -101.3 763.177 -111.873 799.034 -119.244C839.658 -127.558 880.957 -131.657 922.338 -131.482C961.885 -131.339 1001.01 -132.264 1040.6 -133.332C1092.37 -134.755 1144.87 -132.456 1195.09 -117.949C1244.57 -103.648 1289.54 -76.845 1324.87 -37.4204C1359.34 1.05078 1382.6 48.0742 1402.96 95.9729C1414.52 123.16 1434.04 163.787 1461.61 177.519C1473.87 183.631 1485.9 183.211 1472.86 199.106C1456.45 219.121 1434.33 235.179 1415.32 252.298C1387.89 277.002 1359.78 302.189 1336.76 331.56C1322.06 350.315 1315.51 368.516 1316.52 392.799C1317.31 411.299 1320.85 429.606 1319.06 448.176C1314.86 491.763 1282.32 521.653 1253.55 549.488C1235.05 567.389 1218.15 581.043 1208.62 606.508C1197.35 636.604 1192.63 669.348 1185.1 700.597C1176.83 734.913 1167.27 770.61 1149.22 800.835C1133.15 827.744 1113.6 839.811 1084.35 832.561C1038.73 821.262 993.755 793.428 953.25 767.678C912.023 741.481 871.504 712.024 837.34 676.015C818.896 656.569 806.307 633.737 789.927 612.847C769.323 586.621 722.712 596.554 695.012 598.774C649.028 602.459 504.339 630.037 517.69 540.715C523.262 503.432 545.208 469.023 561.258 436.123C567.91 422.469 577.537 406.083 579.041 390.437C580.681 373.397 565.96 357.21 556.427 345.1Z" stroke="#11453B"/>
<path fill-rule="evenodd" clip-rule="evenodd" d="M573.169 348.516C548.938 312.061 519.94 277.62 499.148 238.246C485.661 212.747 472.416 178.676 489.815 151.696C509.453 121.249 552.755 114.152 584.573 110.272C617.354 106.278 656.489 102.918 683.282 79.8319C691.806 72.4782 698.833 62.5617 700.142 50.6876C701.403 39.2976 697.842 27.9075 699.022 16.3111C701.666 -9.72944 716.63 -31.1855 735.924 -46.7471C792.998 -92.7843 877.943 -103.021 946.804 -104.224C981.272 -104.822 1016.74 -101.683 1051.43 -99.4332C1096.45 -96.5145 1141.53 -90.25 1184.46 -75.1511C1275.74 -43.0596 1336.92 28.114 1379.65 116.679C1393.1 144.556 1403.39 174.718 1424.46 197.121C1435.33 208.689 1432.95 216.997 1421.85 227.547C1404.48 244.034 1383.3 256.634 1364.03 270.395C1336.61 289.964 1308.61 309.825 1284.37 333.268C1267.66 349.427 1255.79 364.996 1252.19 389.228C1249.62 406.506 1250.22 424.11 1248.68 441.494C1245.74 474.518 1235.67 507.293 1217.85 534.686C1203.68 556.399 1186.82 576.132 1169.4 594.947C1146.75 619.443 1127.59 644.33 1110.38 673.403C1087.58 711.887 1055.53 782.875 1001.81 764.089C942.556 743.359 887.02 690.687 849.005 639.653C836.239 622.518 825.759 601.503 808.542 588.867C782.767 569.981 756.615 570.643 725.957 570.722C680.058 570.828 580.182 581.343 579.103 508.788C578.678 480.043 590.467 452.863 596.111 425.214C602.477 394.247 589.718 373.361 573.169 348.516Z" stroke="#11453B"/>
<path fill-rule="evenodd" clip-rule="evenodd" d="M591.216 351.766C567.249 304.253 513.504 226.179 554.381 173.345C575.973 145.423 614.165 134.931 646.202 128.678C671.984 123.62 703.077 121.72 722.557 100.279C736.876 84.5151 730.52 61.5731 736.005 41.8394C742.814 17.3751 758.441 -2.64318 777.645 -17.6889C831.308 -59.7386 905.923 -72.643 970.477 -75.3889C1037.52 -78.2345 1111.39 -64.9246 1174.48 -39.322C1253.15 -7.38813 1312.08 53.0792 1353.29 129.652C1360.9 143.787 1367.81 158.292 1375.11 172.598C1380.01 182.195 1387.29 191.478 1391.15 201.573C1397.59 218.404 1390.01 232.162 1377.85 243.132C1360.36 258.924 1338.87 270.164 1318.93 282.016C1291.67 298.235 1263.79 314.163 1238.43 333.192C1221.38 345.997 1203.54 359.791 1197.44 382.007C1193.28 397.16 1192.42 413.208 1192.57 428.901C1192.89 462.55 1191.22 489.76 1176.33 520.577C1151.84 571.17 1114.17 616.663 1074.38 654.516C1043.15 684.223 993.742 730.37 948.243 710.508C907.421 692.724 883.541 650.155 856.645 615.738C843.568 599.007 828.879 583.726 811.619 571.825C789.858 556.822 769.372 550.526 743.59 548.072C700.196 543.939 634.765 542.864 621.351 487.946C616.398 467.679 619.225 446.686 616.627 426.155C613.233 399.009 603.308 375.733 591.216 351.766Z" stroke="#11453B"/>
<path fill-rule="evenodd" clip-rule="evenodd" d="M616.138 353.526C599.071 301.537 576.65 236.017 617.871 189.812C637.838 167.428 665.923 154.915 693.104 145.565C712.572 138.863 743.483 136.89 755.418 116.287C764.184 101.125 765.398 80.2087 773.328 63.964C784.225 41.6303 800.732 23.2349 820.099 8.8348C870.551 -28.6895 936.263 -43.1893 996.19 -47.3413C1126.4 -56.3503 1258.89 15.401 1328.57 133.451C1349.34 168.639 1376.16 206.092 1342.59 242.042C1305.93 281.262 1250.71 299.636 1206.96 327.503C1190.24 338.143 1168.94 350.933 1159.62 370.198C1154.01 381.778 1153.62 396.306 1153.37 409.054C1152.69 441.522 1150.14 470.721 1137.76 501.016C1118.65 547.834 1088.18 591.028 1053.65 626.408C1023.53 657.26 980.586 693.516 936.85 671.275C903.316 654.183 882.048 617.905 855.993 591.163C826.997 561.38 791.137 541.311 751.757 531.504C713.449 521.99 671.432 515.573 651.243 475.15C644.318 461.284 637.082 443.33 634.486 427.983C630.295 402.679 624.159 377.777 616.138 353.526Z" stroke="#11453B"/>
<path fill-rule="evenodd" clip-rule="evenodd" d="M643.926 353.892C636.031 301.395 635.153 246.655 671.838 205.279C688.959 185.976 710.601 172.263 732.486 159.838C748.588 150.695 765.216 142.984 777.241 127.996C788.383 114.119 796.852 98.0059 807.609 83.7655C821.799 64.8939 838.777 48.5574 857.892 35.3837C905.806 2.42429 964.092 -12.9911 1019.85 -18.3383C1046.85 -20.9372 1076.13 -22.29 1102.94 -15.2054C1128.83 -8.37001 1154.44 2.4385 1178.25 15.0413C1228.86 41.8061 1272.72 81.0029 1304.52 130.56C1326.33 164.551 1338.12 197.603 1309.88 232.087C1278.05 270.956 1228.14 292.402 1187 317.629C1158.78 334.931 1127.16 351.891 1121.89 388.66C1117.69 417.917 1114.28 445.686 1103.43 473.341C1087.27 514.132 1063.51 551.083 1033.55 582.002C1006.16 610.17 971.508 634.072 932.327 619.027C901.284 607.087 877.199 580.336 850.077 561.211C819.851 539.851 786.642 528.074 751.672 518.604C720.244 510.06 690.652 496.93 670.34 469.054C666.183 463.358 661.816 457.156 658.611 450.784C654.521 442.653 654.839 434.593 654.036 425.479C651.944 401.427 647.496 377.652 643.926 353.892Z" stroke="#11453B"/>
<path fill-rule="evenodd" clip-rule="evenodd" d="M674.566 349.601C675.24 299.736 686.606 252.61 717.736 213.75C731.044 197.126 746.936 183.433 761.58 168.2C773.371 155.919 784.514 144.508 798.072 134.389C830.233 110.426 856.371 79.4177 890.55 58.0797C936.175 29.553 988.437 13.7849 1040.29 7.48054C1065.62 4.39966 1091.77 3.32277 1117.39 6.80303C1139.4 9.7912 1160.47 20.2819 1180.02 31.015C1218.33 52.0392 1255.53 81.9209 1280.41 119.726C1335.25 203.074 1227.12 263.672 1171.62 299.159C1146.09 315.483 1107.09 334.389 1096.64 366.724C1089.16 389.824 1084.61 413.315 1074.99 435.702C1049.13 495.822 996.646 566.532 926.704 557.118C896.776 553.096 869.498 536.758 841.559 525.789C812.79 514.492 783.097 508.195 753.196 501.285C725.25 494.83 702.977 485.645 684.927 461.019C676.299 449.259 677.062 435.181 676.293 420.754C675.038 397.055 674.262 373.221 674.566 349.601Z" stroke="#11453B"/>
<path fill-rule="evenodd" clip-rule="evenodd" d="M702.466 343.214C713.702 267.948 755.434 185.779 816.797 142.068C888.977 90.6497 967.174 47.3517 1053.41 34.9046C1093.4 29.133 1137.2 26.2934 1174.92 45.1669C1203.64 59.5212 1236.99 80.9781 1252.79 111.153C1291.45 184.96 1205.46 243.716 1156.47 277.861C1130.09 296.244 1096.52 314.157 1076.64 341.001C1065.1 356.565 1059.21 377.154 1049.9 394.248C1021.68 446.05 975.23 487.832 917.366 495.305C890.611 498.757 863.661 494.487 837.109 491.092C809.929 487.619 782.412 485.733 755.4 480.887C733.839 477.015 708.428 470.461 700.487 446.114C690.473 415.434 697.88 373.951 702.466 343.214Z" stroke="#11453B"/>
<path fill-rule="evenodd" clip-rule="evenodd" d="M729.824 331.123C746.212 260.36 780.914 191.335 839.252 149.091C870.188 126.691 906.101 111.227 940.58 95.9495C979.663 78.6345 1020.5 65.1942 1062.2 58.5274C1114.13 50.2225 1198.23 42.7366 1225.36 105.166C1252.29 167.133 1184.25 221.977 1144.01 253.231C1118.21 273.252 1090.6 291.628 1065.95 313.516C1052.58 325.382 1042.29 339.093 1030.98 353.011C999.715 391.573 955.149 422.1 909.725 438.397C865.699 454.194 811.236 461.189 764.763 455.968C744.711 453.724 730.379 446.153 724.314 424.629C715.911 394.707 723.05 360.354 729.824 331.123Z" stroke="#11453B"/>
<path fill-rule="evenodd" clip-rule="evenodd" d="M757.01 312.064C773.29 249.76 808.404 192.854 859.624 155.46C917.038 113.541 990.969 90.2478 1058.92 78.4026C1095.04 72.1112 1173.31 55.0528 1191.72 103.873C1210.13 152.694 1156.91 200.805 1126.28 227.29C1089.1 259.385 1049.02 290.374 1008.98 319.171C974.197 344.209 937.08 369.808 899.403 389.143C878.154 400.112 856.018 409.068 833.259 415.904C816.406 420.926 794.976 428.416 777.307 424.678C732.741 415.238 749.224 341.855 757.01 312.064Z" stroke="#11453B"/>
<path fill-rule="evenodd" clip-rule="evenodd" d="M790.567 293.407C826.287 175.583 939.459 117.635 1048.42 97.4364C1073.75 92.7479 1144.73 75.8437 1158.88 111.836C1172.6 146.733 1128.98 188.119 1108.56 207.726C1045.28 268.485 967.098 313.534 893.016 358.164C869.892 372.094 828.187 402.324 799.503 388.38C768.36 373.211 783.167 317.839 790.567 293.407Z" stroke="#11453B"/>
<path fill-rule="evenodd" clip-rule="evenodd" d="M827.155 270.729C858.219 183.96 948.571 134.195 1031.64 117.789C1051.99 113.775 1103.66 101.277 1119.07 125.49C1133.33 147.889 1099.3 180.345 1086.57 193.241C1058.22 221.96 1024.63 245.619 991.442 268.359C960.756 289.398 929.739 310.964 897.452 328.758C880.445 338.124 848.55 358.11 829.224 343.647C808.418 328.089 820.258 289.996 827.155 270.729Z" stroke="#11453B"/>
<path fill-rule="evenodd" clip-rule="evenodd" d="M867.474 245.378C891.151 188.715 954.563 151.919 1010.5 139.692C1025.55 136.409 1058.08 127.892 1070.78 143.025C1082.47 156.961 1063.63 177.392 1055.27 186.828C1018.21 228.651 963.945 266.009 914.225 288.953C901.724 294.721 879.252 306.044 866.392 294.401C853.201 282.444 862.036 258.389 867.474 245.378Z" stroke="#11453B"/>
<path fill-rule="evenodd" clip-rule="evenodd" d="M910.247 221.576C923.588 193.439 958.457 172.211 987.342 165.453C1007.67 160.702 1032.1 164.806 1014.39 189.299C996.789 213.604 964.134 235.803 936.457 245.644C915.34 253.149 898.79 245.745 910.247 221.576Z" stroke="#11453B"/>
<path fill-rule="evenodd" clip-rule="evenodd" d="M-171.646 416.456C-172.502 360.868 -200.496 303.096 -186.671 246.454C-175.318 199.935 -118.163 196.051 -83.8753 174.975C-56.6284 158.231 -41.1656 128.57 -26.4305 100.11C-13.1911 74.5603 -1.29925 48.242 12.6476 23.1116C21.676 6.86542 37.1792 -25.0366 56.7587 -25.6128C75.5027 -26.1676 92.6903 -1.30747 103.578 13.3881C117.774 32.5435 130.36 52.9651 144.145 72.4264C167.377 105.253 195.25 129.551 227.166 152.548C263.486 178.714 300.406 203.987 337.925 228.366C365.55 246.369 393.362 264.237 419.915 284.018C436.571 296.431 473.331 319.719 473.5 342.601C473.58 353.52 463.777 365.612 457.168 374.34C445.983 389.114 433.236 402.621 420.448 415.837C396.63 440.456 371.802 463.957 347.244 487.743C315.368 518.614 284.921 548.979 256.899 584.025C227.927 620.302 200.249 657.774 172.005 694.733C152.877 719.771 133.769 747.889 106.179 763.253C71.6218 782.458 43.2565 762.207 8.30856 761.973C-21.7546 761.766 -19.5379 688.246 -23.3582 667.803C-27.1918 647.111 -35.6408 627.849 -38.9153 607.107C-42.9983 581.216 -43.0522 554.727 -44.0561 528.558C-45.2756 496.549 -45.7607 466.077 -78.1753 453.871C-96.6228 446.936 -116.58 445.477 -135.674 441.323C-148.044 438.628 -171.376 434.018 -171.646 416.456Z" stroke="#11453B"/>
<path fill-rule="evenodd" clip-rule="evenodd" d="M-156.866 406.567C-160.018 359.971 -178.635 300.33 -161.03 252.23C-145.989 211.126 -98.95 205.797 -67.2758 184.205C-41.128 166.395 -29.488 137.252 -16.4175 108.621C-5.93141 85.654 4.23755 62.4659 16.1407 40.2325C24.9128 23.8477 38.3073 -3.81401 56.5466 -7.20494C72.9438 -10.2539 90.5286 14.1665 99.7326 26.5904C113.161 44.7276 124.645 64.425 136.508 83.7091C157.352 117.583 178.695 148.044 209.202 172.928C239.844 197.918 273.367 216.604 307.248 236.052C333.753 251.268 360.124 266.926 385.307 284.494C404.066 297.573 431.037 314.314 439.62 337.637C446.415 356.088 411.954 386.706 401.792 397.513C380.873 419.732 358.707 440.591 336.5 461.321C309.428 486.582 281.492 508.673 257.584 537.489C214.823 589.008 179.08 653.165 124.058 691.456C90.8727 714.551 53.9419 720.457 17.0314 717.002C2.41564 715.634 -1.09321 693.857 -2.93536 681.155C-5.99887 660.054 -6.38351 638.59 -8.73849 617.404C-10.945 597.571 -15.8439 578.729 -19.7914 559.281C-23.7861 539.576 -24.9063 519.387 -27.8483 499.548C-29.6702 487.23 -31.4719 472.897 -39.441 462.995C-47.6869 452.744 -61.2905 448.448 -73.1801 445.186C-95.5086 439.116 -154.64 439.451 -156.866 406.567Z" stroke="#11453B"/>
<path fill-rule="evenodd" clip-rule="evenodd" d="M-137.844 387.061C-143.144 344.289 -150.564 291.015 -128.973 251.608C-111.326 219.386 -73.6879 212.436 -46.8047 191.441C-24.4448 173.982 -15.9991 146.214 -4.90018 120.409C4.20716 99.2438 13.3618 77.9857 24.3999 57.8445C32.7714 42.5697 43.5598 21.8592 60.1812 16.5305C74.3924 11.9772 90.4467 32.3746 98.3253 42.527C111.74 59.8295 122.677 79.2164 133.539 98.3473C151.309 129.651 167.66 163.089 192.95 188.552C217.524 213.261 246.716 227.846 276.455 244.245C299.234 256.809 321.87 269.857 343.332 284.84C359.812 296.337 380.234 309.961 388.822 329.092C396.248 345.591 377.183 365.12 367.657 376.759C351.927 395.969 334.468 413.591 317.253 431.285C298.673 450.373 278.096 467.982 260.117 487.539C222.311 528.697 192.106 574.265 145.509 605.797C115.332 626.223 74.7232 644.777 39.05 641.441C13.3955 639.036 15.0833 579.117 12.6191 559.972C8.56843 528.668 0.743798 495.778 -11.6851 466.943C-22.3587 442.234 -47.7229 434.615 -71.055 429.072C-85.6713 425.593 -100.99 423.715 -115.127 418.337C-131.492 412.104 -135.623 404.99 -137.844 387.061Z" stroke="#11453B"/>
<path fill-rule="evenodd" clip-rule="evenodd" d="M-120.101 367.012C-123.256 330.85 -122.547 288.088 -102.107 256.807C-84.1947 229.407 -52.3021 222.193 -29.6192 200.609C-11.9161 183.77 -4.96323 156.313 4.55725 134.043C16.1926 106.815 32.4971 56.5249 61.8491 46.2785C89.1537 36.7528 117.708 97.6031 127.594 115.748C143.243 144.468 156.331 175.963 175.311 202.486C191.656 225.319 213.555 237.941 236.799 251.505C266.435 268.83 311.429 289.373 327.274 323.137C339.085 348.296 300.679 385.7 287.563 403.132C273.847 421.341 263.516 442.925 249.36 460.493C227.022 488.213 190.825 510.533 160.939 527.565C131.884 544.133 94.1538 562.471 61.1936 561.379C39.531 560.666 35.4093 525.36 30.7876 508.114C24.1658 483.597 15.3616 461.627 -3.55103 444.952C-22.8014 427.977 -45.4911 419.978 -69.343 412.978C-81.5865 409.411 -95.553 406.628 -106.506 399.421C-118.608 391.579 -118.885 380.912 -120.101 367.012Z" stroke="#11453B"/>
<path fill-rule="evenodd" clip-rule="evenodd" d="M-98.4819 346.169C-98.3068 314.928 -91.5381 281.613 -71.4678 257.515C-54.7515 237.442 -28.5861 230.732 -12.5837 210.213C0.0915565 193.967 6.54369 171.161 15.0298 152.296C25.4084 129.177 40.084 88.7906 65.8925 80.7673C91.0814 72.957 113.361 117.44 123.019 135.042C137.162 160.851 148.612 188.209 162.883 213.947C174.063 234.14 187.735 247.155 205.94 260.17C227.31 275.457 257.126 292.391 268.542 317.682C276.772 335.994 256.85 365.254 249.617 381.386C244.767 392.221 240.329 403.227 237.891 414.97C235.992 424.116 235.803 432.579 230.301 440.432C216.447 460.185 186.072 462.762 165.463 469.273C138.092 477.914 109.05 487.734 80.4064 489.609C62.8011 490.78 53.8167 473.661 43.768 461.619C31.8942 447.383 15.0837 437.145 0.401367 426.402C-18.9752 412.201 -40.0625 403.369 -61.8772 394.323C-71.717 390.24 -83.2742 386.236 -90.8983 378.12C-98.859 369.706 -98.5425 357.444 -98.4819 346.169Z" stroke="#11453B"/>
<path fill-rule="evenodd" clip-rule="evenodd" d="M-75.7756 327.622C-72.2968 301.384 -61.4558 276.306 -43.1449 257.758C-29.1084 243.517 -10.4671 235.499 0.798553 218.389C11.2956 202.44 18.6106 184.304 27.2806 167.251C36.4563 149.222 50.0883 119.089 71.2511 114.183C94.0588 108.9 111.628 139.297 121.357 156.143C133.647 177.433 142.985 200.339 153.974 222.362C162.253 238.777 172.813 253.79 185.303 266.9C198.403 280.721 216.168 293.957 222.795 312.962C228.653 329.794 217.691 350.158 215.756 367.226C213.687 385.461 217.314 404.614 205.839 420.272C182.175 452.563 122.786 446.574 88.8339 447.265C55.3335 447.977 28.3998 428.218 1.29071 409.421C-16.6157 397.01 -35.2637 386.5 -53.6218 374.937C-72.3372 363.138 -78.8364 350.713 -75.7756 327.622Z" stroke="#11453B"/>
<path fill-rule="evenodd" clip-rule="evenodd" d="M-54.6792 312.604C-44.3916 274.592 -12.2607 254.389 10.7093 225.663C29.5035 202.146 43.5958 153.445 75.2478 147.003C111.183 139.691 132.696 204.22 145.19 229.119C159.053 256.734 183.743 279.196 194.01 308.428C199.407 323.771 194.772 338.088 191.899 353.424C188.748 370.264 186.381 387.481 175.506 401.035C154.101 427.709 112.297 427.524 82.1894 428.258C51.0231 429.02 23.4524 410.741 -1.37946 392.498C-27.7156 373.178 -65.2164 351.585 -54.6792 312.604Z" stroke="#11453B"/>
<path fill-rule="evenodd" clip-rule="evenodd" d="M-37.4486 302.297C-25.8564 275.215 -1.49654 253.197 18.27 232.413C34.7681 215.085 52.5165 180.203 77.6714 177.717C107.236 174.784 125.154 212.032 136.787 234.871C148.237 257.313 164.735 281.009 171.075 305.641C177.686 331.299 160.08 365.855 143.29 384.011C124.563 404.258 93.9249 411.738 67.6353 410.931C40.1089 410.109 14.8521 393.376 -5.99478 376.021C-28.2822 357.467 -50.9297 333.736 -37.4486 302.297Z" stroke="#11453B"/>
<path fill-rule="evenodd" clip-rule="evenodd" d="M-21.4603 297.198C-10.3874 274.673 8.80667 255.618 26.5043 238.621C40.1619 225.499 60.3149 203.187 80.019 202.64C101.696 202.037 120.067 220.766 128.684 239.963C137.179 258.897 146.13 282.636 147.402 303.408C150.164 348.643 93.9418 399.314 51.7245 395.191C11.6973 391.281 -43.5382 342.078 -21.4603 297.198Z" stroke="#11453B"/>
<path fill-rule="evenodd" clip-rule="evenodd" d="M-6.6741 294.714C8.60164 265.366 45.7067 223.525 80.0584 222.532C119.488 221.396 129.387 267.957 124.247 301.699C119.026 336.136 73.566 385.983 37.3176 379.247C1.93933 372.675 -24.7779 329.521 -6.6741 294.714Z" stroke="#11453B"/>
<path fill-rule="evenodd" clip-rule="evenodd" d="M8.93792 289.969C21.8714 265.396 49.4704 234.703 78.2556 233.774C112.554 232.674 111.907 271.984 104.129 296.451C96.0416 321.854 60.4224 365.241 30.3903 358.391C1.18729 351.703 -3.45636 313.521 8.93792 289.969Z" stroke="#11453B"/>
<path fill-rule="evenodd" clip-rule="evenodd" d="M22.5356 287.141C31.0726 269.607 52.4387 247.446 72.7504 246.737C97.5772 245.884 92.7511 277.063 86.3366 292.112C78.7121 310.018 53.1552 341.133 31.708 336.09C10.592 331.126 15.4925 301.588 22.5356 287.141Z" stroke="#11453B"/>
<path fill-rule="evenodd" clip-rule="evenodd" d="M1190.43 1288.97C1135.48 1324.15 1073.36 1353.19 1014.78 1382.71C929.169 1425.83 842.3 1467.8 752.348 1499.93C704.121 1517.15 641.628 1541.97 589.881 1528.48C570.961 1523.55 553.707 1508.64 536.743 1498.94C513.352 1485.58 489.616 1472.88 465.921 1460.15C418.388 1434.63 370.708 1409.37 323.992 1382.22C301.497 1369.14 279.67 1352.67 256.251 1341.51C242.566 1334.99 226.189 1338.04 211.565 1338.45C177.692 1339.42 143.839 1341.24 109.985 1342.79C68.5776 1344.68 27.0754 1346.69 -14.3795 1345.95C-33.0767 1345.61 -78.8687 1349.11 -89.1616 1332.11C-94.6993 1322.96 -81.6477 1306.46 -75.5974 1298.83C-64.4884 1284.8 -51.7199 1272.15 -39.1202 1259.64C-9.98171 1230.69 20.9644 1203.12 46.8654 1170.79C60.1733 1154.17 77.6092 1133.86 68.9216 1111.17C60.1531 1088.25 44.9632 1068.41 35.6956 1045.57C25.0249 1019.28 20.6002 991.929 15.5616 964.057C11.8316 943.458 3.14406 925.206 -5.02417 906.215C-14.049 885.224 -23.3977 864.056 -29.6638 841.919C-33.8053 827.297 -40.4895 800.991 -26.0012 791.734C-5.41539 778.57 33.1864 789.229 56.6523 793.107C89.0824 798.458 121.276 805.274 153.619 811.145C177.098 815.414 200.659 820.096 224.529 820.594C263.01 821.398 301.618 818.616 339.998 816.026C411.063 811.23 481.619 804.726 552.925 804.726C615.396 804.726 759.761 880.983 793.554 894.41C861.004 921.215 930.248 946.624 994.076 982.287C1011.34 991.943 1037.92 1004.81 1047 1024.68C1052.61 1036.93 1050.03 1044.01 1063.25 1051.9C1081.29 1062.66 1104.4 1066.89 1124.36 1071.71C1156.52 1079.46 1188.92 1086.03 1221.22 1093.05C1286.55 1107.22 1351.44 1123.25 1416.5 1138.66C1436.17 1143.33 1459.97 1144.36 1478.72 1152.57C1490.81 1157.84 1489.55 1164.48 1480.2 1172.49C1463.79 1186.55 1440.79 1194.36 1421.4 1202.38C1393 1214.13 1364.13 1224.61 1335.25 1234.94C1306.36 1245.27 1277.33 1255.28 1248.44 1265.63C1229.35 1272.45 1207.58 1277.99 1190.43 1288.97Z" stroke="#11453B"/>
<path fill-rule="evenodd" clip-rule="evenodd" d="M1145.21 1281.23C1087.08 1316.49 1022.56 1344.57 960.357 1371.97C880.749 1407.05 799.339 1439.94 715.46 1461.87C666.211 1474.74 608.103 1488.95 557.781 1474.19C539.829 1468.93 526.417 1457.09 511.028 1446.64C493.487 1434.72 475.272 1423.8 457.056 1413.05C419.559 1390.91 381.667 1369.54 343.378 1348.91C323.098 1337.95 300.774 1323.26 277.863 1319.46C259.648 1316.43 238.956 1320.81 220.66 1322.09C187.71 1324.38 154.767 1326.75 121.804 1328.76C83.7669 1331.07 45.6224 1333.21 7.50476 1332.84C-13.7399 1332.63 -50.2114 1336.05 -65.2358 1321.56C-78.3442 1308.92 -30.6197 1263.2 -22.2271 1254.51C3.98302 1227.39 31.5492 1201.57 55.9445 1172.57C70.3617 1155.47 87.916 1134.67 93.9946 1112C99.1692 1092.68 89.1844 1070.67 83.288 1052.81C75.9141 1030.45 69.9637 1007.26 61.3956 985.362C53.7654 965.852 41.6216 948.472 30.9554 930.736C19.2233 911.226 7.34277 891.395 -1.36694 870.111C-6.7034 857.014 -15.5345 835.081 -4.92908 822.597C7.32253 808.203 45.0894 817.609 60.613 819.661C92.1056 823.88 123.355 830.15 154.632 835.765C206.58 845.086 256.106 853.237 309.005 851.285C377.893 848.734 446.714 842.734 515.589 839.413C541.023 838.174 566.862 835.68 592.317 837.026C606.909 837.803 618.021 842.506 626.508 853.116C638.098 867.596 664.794 875.612 683.36 883.921C712.309 896.868 741.623 908.91 770.855 921.11C835.028 947.902 900.435 973.726 961.295 1008.38C980.549 1019.34 1002.6 1031.56 1016.84 1049.66C1024.79 1059.76 1022.78 1069.49 1027.63 1080.22C1034.06 1094.34 1055.17 1100.71 1067.79 1105.32C1092.16 1114.24 1117.52 1120.22 1142.68 1125.82C1199.62 1138.49 1256.7 1146.82 1314.56 1152.96C1328.12 1154.38 1381.52 1159.32 1353.47 1183.12C1322.49 1209.42 1277.75 1222.31 1241.27 1237.13C1208.41 1250.46 1175.52 1262.86 1145.21 1281.23Z" stroke="#11453B"/>
<path fill-rule="evenodd" clip-rule="evenodd" d="M1064.88 1274.72C1010.24 1305.73 949.714 1328.86 890.869 1351C819.462 1377.86 746.265 1401.8 671.372 1415.21C624.326 1423.62 572.457 1430.09 525.728 1416.1C493.817 1406.56 469.132 1380.74 441.104 1362.99C413.076 1345.23 383.913 1328.56 353.879 1314.66C335.239 1306.04 315.187 1297.35 294.446 1298.49C244.016 1301.25 193.647 1307.83 143.162 1311.03C109.765 1313.16 76.3004 1314.92 42.8019 1314.39C22.6014 1314.08 -5.14978 1315.36 -23.0337 1304.15C-42.8019 1291.75 62.4552 1185.87 72.4034 1173.95C97.345 1144.07 127.548 1104.42 122.726 1061.92C118.113 1021.3 98.1217 990.968 75.5101 959.137C62.678 941.031 21.5275 892.659 36.7775 869.11C45.4898 855.65 74.2067 860.31 87.8492 861.227C114.736 863.034 141.474 866.919 168.219 870.291C207.215 875.179 247.285 882.727 286.45 884.94C313.721 886.477 341.155 884.421 368.474 884.378C407.646 884.321 446.817 884.634 485.989 885.004C518.88 885.317 552.047 885.004 584.823 888.334C605.199 890.383 620.665 894.986 635.281 907.991C647.998 919.303 667.185 925.927 683.394 933.12C710.166 944.994 737.289 956 764.324 967.184C820.927 990.605 878.179 1013.53 932.357 1042.8C957.089 1056.16 998.672 1074.85 1004.47 1107.23C1006.57 1118.91 1008.11 1123.95 1018.91 1130.59C1034.25 1140.01 1052.62 1144.26 1069.83 1147.95C1109.95 1156.56 1151.23 1155.27 1191.28 1163.78C1207.59 1167.29 1228.88 1174.86 1210.26 1192.19C1188.53 1212.46 1156.91 1223.6 1130.88 1236.12C1117.88 1242.37 1104.5 1248.21 1092.16 1255.84C1082.68 1261.72 1074.57 1269.25 1064.88 1274.72Z" stroke="#11453B"/>
<path fill-rule="evenodd" clip-rule="evenodd" d="M961.394 1265.03C910.915 1290.22 856.094 1308.54 802.257 1325.05C742.46 1343.36 681.219 1358.53 619.169 1364.98C576.324 1369.45 530.673 1370.77 489.089 1357.09C462.791 1348.43 444.962 1330.22 422.332 1314.95C388.179 1291.88 351.227 1273.59 310.195 1278.04C264.194 1283.02 218.042 1286.75 171.739 1289.25C143.81 1290.75 115.772 1291.88 87.8083 1290.83C70.128 1290.17 47.3499 1289.07 31.969 1280.62C11.3891 1269.3 88.6917 1183.18 98.3275 1170.63C122.225 1139.5 139.744 1106.84 149.979 1068.27C158.327 1036.8 141.274 1012.06 123.682 988.516C112.744 973.897 77.4038 937.127 88.4692 918.143C94.538 907.673 114.538 908.215 125.28 907.681C145.752 906.668 166.311 907.723 186.783 908.187C217.012 908.9 249.19 904.001 279.163 907.944C345.589 916.673 411.847 924.233 478.684 930.216C515.528 933.511 552.595 936.506 589.109 942.86C602.217 945.142 615.757 947.56 628.178 952.723C636.169 956.039 640.525 961.688 647.268 966.323C679.419 988.388 721.388 999.741 757.598 1013.88C805.737 1032.68 854.132 1051.19 900.989 1073.4C925.635 1085.08 960.059 1098.5 977.018 1122.34C982.142 1129.54 979.958 1135.3 983.181 1142.23C986.889 1150.22 998.157 1152.6 1005.43 1154.82C1021.95 1159.88 1091.07 1167.52 1059.22 1197.18C1044.02 1211.31 1024.65 1220.38 1007.52 1231.48C1001.31 1235.5 995.264 1239.55 990.092 1244.97C981.441 1254.07 972.918 1259.26 961.394 1265.03Z" stroke="#11453B"/>
<path fill-rule="evenodd" clip-rule="evenodd" d="M851.13 1254.13C751.479 1294.88 634.692 1322.64 526.047 1317.26C489.917 1315.47 451.044 1309.48 419.726 1288.97C401.259 1276.86 386.502 1263.19 364.319 1258.82C348.305 1255.66 331.061 1259.24 314.953 1260.54C291.621 1262.42 268.276 1264.1 244.91 1265.46C215.943 1267.12 186.881 1268.41 157.86 1267.72C137.123 1267.23 108.487 1267.79 90.4733 1256.03C68.9659 1242.01 123.711 1176.24 131.414 1164.52C150.083 1136.11 163.171 1108.59 167.901 1074.36C169.293 1064.38 173.983 1054.16 173.374 1044.11C172.739 1033.84 166.746 1024.7 161.212 1016.63C153.975 1006.05 128.866 980.956 136.056 968.054C140.029 960.93 154.941 960.032 162.671 958.522C177.172 955.672 191.882 954.14 206.47 951.875C231.221 948.013 255.796 935.439 280.634 935.795C347.427 936.735 415.185 958.593 480.64 970.598C519.553 977.758 558.73 984.255 597.17 993.951C609.333 997.022 621.86 1000.2 633.421 1005.41C641.489 1009.04 646.672 1015.52 654.145 1019.59C682.801 1035.21 715.755 1044.69 746.526 1055.21C786.473 1068.89 826.555 1082.15 866.225 1096.71C891.091 1105.84 923.065 1113.87 944.491 1130.8C960.14 1143.16 949.444 1146.86 941.187 1158.37C936.971 1164.24 937.944 1170.02 936.112 1176.67C933.498 1186.16 926.105 1192.99 919.173 1199.13C909.612 1207.62 896.875 1214.61 889.057 1225.01C886.3 1228.67 886.429 1233.22 884.199 1236.41C877.712 1245.71 860.502 1250.29 851.13 1254.13Z" stroke="#11453B"/>
</g>
</g>
</g>
</svg>
